<svg xmlns="http://www.w3.org/2000/svg" viewBox="0 0 512 512" width="100%" height="100%">
  <defs>
    <radialGradient id="glow-earth" cx="50%" cy="50%" r="50%">
      <stop offset="0%" stop-color="#b45309" stop-opacity="0.3"/>
      <stop offset="100%" stop-color="#b45309" stop-opacity="0"/>
    </radialGradient>
    <linearGradient id="gem-earth" x1="0%" y1="0%" x2="0%" y2="100%">
      <stop offset="0%" stop-color="#d97706"/>
      <stop offset="40%" stop-color="#78350f"/>
      <stop offset="100%" stop-color="#451a03"/>
    </linearGradient>
    <linearGradient id="bevel-earth" x1="0%" y1="0%" x2="0%" y2="100%">
      <stop offset="0%" stop-color="#451a03"/>
      <stop offset="100%" stop-color="#1c0d02"/>
    </linearGradient>
    <linearGradient id="mountain-grad" x1="0%" y1="0%" x2="0%" y2="100%">
      <stop offset="0%" stop-color="#f59e0b"/>
      <stop offset="100%" stop-color="#291102"/>
    </linearGradient>
    <linearGradient id="glare" x1="0%" y1="0%" x2="100%" y2="100%">
      <stop offset="0%" stop-color="#ffffff" stop-opacity="0.5"/>
      <stop offset="40%" stop-color="#ffffff" stop-opacity="0.05"/>
    </linearGradient>
  </defs>
  <rect width="512" height="512" fill="#0b0b0b"/>
  <ellipse cx="256" cy="460" rx="160" ry="25" fill="url(#glow-earth)"/>
  <g transform="translate(0, -10)">
    <path d="M 256,80 L 400,140 Q 430,220 430,300 L 370,410 Q 256,450 142,410 L 82,300 Q 82,220 112,140 Z" fill="#1c0d02"/>
    <path d="M 142,410 L 82,300 Q 82,220 112,140 L 135,165 L 112,290 L 165,385 L 256,415 L 347,385 L 400,290 L 377,165 L 400,140 Q 430,220 430,300 L 370,410 Q 256,450 142,410 Z" fill="url(#bevel-earth)" opacity="0.9"/>
    <path d="M 256,100 L 377,165 L 400,290 L 347,385 L 256,415 L 165,385 L 112,290 L 135,165 Z" fill="url(#gem-earth)"/>
    <path d="M 256,100 L 377,165 L 400,290 L 220,320 L 112,290 L 135,165 Z" fill="url(#glare)" opacity="0.3"/>
    <ellipse cx="160" cy="145" rx="20" ry="15" transform="rotate(-25, 160, 145)" fill="#ffffff" opacity="0.5"/>
    <path d="M 160,340 L 210,250 L 240,290 L 256,210 L 295,290 L 315,255 L 360,340 Z" fill="#291102" stroke="#291102" stroke-width="14" stroke-linejoin="round"/>
    <path d="M 160,340 L 210,250 L 240,290 L 256,210 L 295,290 L 315,255 L 360,340 Z" fill="url(#mountain-grad)"/>
    <path d="M 256,210 L 265,240 L 256,250 L 248,240 Z" fill="#fef3c7"/>
    <path d="M 210,250 L 218,270 L 210,275 L 203,270 Z" fill="#fef3c7"/>
    <path d="M 315,255 L 322,275 L 315,280 L 308,275 Z" fill="#fef3c7"/>
  </g>
</svg>
