<svg xmlns="http://www.w3.org/2000/svg" viewBox="0 0 512 512" width="100%" height="100%">
  <defs>
    <radialGradient id="glow-nature" cx="50%" cy="50%" r="50%">
      <stop offset="0%" stop-color="#10b981" stop-opacity="0.4"/>
      <stop offset="100%" stop-color="#10b981" stop-opacity="0"/>
    </radialGradient>
    <linearGradient id="gem-nature" x1="0%" y1="0%" x2="0%" y2="100%">
      <stop offset="0%" stop-color="#a7f3d0"/>
      <stop offset="40%" stop-color="#10b981"/>
      <stop offset="100%" stop-color="#065f46"/>
    </linearGradient>
    <linearGradient id="bevel-nature" x1="0%" y1="0%" x2="0%" y2="100%">
      <stop offset="0%" stop-color="#047857"/>
      <stop offset="100%" stop-color="#022c22"/>
    </linearGradient>
    <linearGradient id="leaf-grad" x1="0%" y1="0%" x2="100%" y2="100%">
      <stop offset="0%" stop-color="#34d399"/>
      <stop offset="100%" stop-color="#047857"/>
    </linearGradient>
    <linearGradient id="glare" x1="0%" y1="0%" x2="100%" y2="100%">
      <stop offset="0%" stop-color="#ffffff" stop-opacity="0.6"/>
      <stop offset="40%" stop-color="#ffffff" stop-opacity="0.1"/>
    </linearGradient>
  </defs>
  <rect width="512" height="512" fill="#0b0b0b"/>
  <ellipse cx="256" cy="460" rx="160" ry="25" fill="url(#glow-nature)"/>
  <g transform="translate(0, -10)">
    <path d="M 256,80 L 400,140 Q 430,220 430,300 L 370,410 Q 256,450 142,410 L 82,300 Q 82,220 112,140 Z" fill="#022c22"/>
    <path d="M 142,410 L 82,300 Q 82,220 112,140 L 135,165 L 112,290 L 165,385 L 256,415 L 347,385 L 400,290 L 377,165 L 400,140 Q 430,220 430,300 L 370,410 Q 256,450 142,410 Z" fill="url(#bevel-nature)" opacity="0.9"/>
    <path d="M 256,100 L 377,165 L 400,290 L 347,385 L 256,415 L 165,385 L 112,290 L 135,165 Z" fill="url(#gem-nature)"/>
    <path d="M 256,100 L 377,165 L 400,290 L 220,320 L 112,290 L 135,165 Z" fill="url(#glare)" opacity="0.4"/>
    <path d="M 140,125 Q 140,145 120,145 Q 140,145 140,165 Q 140,145 160,145 Q 140,145 140,125 Z" fill="#ffffff"/>
    <ellipse cx="145" cy="145" rx="12" ry="10" fill="#ffffff" opacity="0.7"/>
    <g stroke="#033020" stroke-width="10" stroke-linejoin="round">
      <path d="M 210,360 C 210,360 215,310 240,280 C 220,285 190,265 180,240 C 210,245 225,225 240,200 C 210,205 195,170 230,160 C 280,145 340,150 340,150 C 340,150 330,210 300,250 C 315,240 325,270 295,290 C 310,290 280,330 245,330 C 235,335 210,360 210,360 Z" fill="url(#leaf-grad)"/>
    </g>
    <path d="M 215,350 Q 270,240 335,155" fill="none" stroke="#033020" stroke-width="6" stroke-linecap="round"/>
    <path d="M 250,290 Q 290,280 315,260 M 265,255 Q 300,235 320,205 M 280,210 Q 310,195 325,175" fill="none" stroke="#033020" stroke-width="4" stroke-linecap="round"/>
    <ellipse cx="230" cy="210" rx="6" ry="12" transform="rotate(-30, 230, 210)" fill="#ffffff" opacity="0.5"/>
  </g>
</svg>
