<svg xmlns="http://www.w3.org/2000/svg" viewBox="0 0 512 512" width="100%" height="100%">
  <defs>
    <radialGradient id="super-glow" cx="50%" cy="50%" r="50%">
      <stop offset="0%" stop-color="#22c55e" stop-opacity="0.6"/>
      <stop offset="60%" stop-color="#22c55e" stop-opacity="0.2"/>
      <stop offset="100%" stop-color="#22c55e" stop-opacity="0"/>
    </radialGradient>
    <linearGradient id="gem-poison" x1="0%" y1="0%" x2="0%" y2="100%">
      <stop offset="0%" stop-color="#4ade80"/>
      <stop offset="50%" stop-color="#16a34a"/>
      <stop offset="100%" stop-color="#14532d"/>
    </linearGradient>
    <linearGradient id="bevel-poison" x1="0%" y1="0%" x2="0%" y2="100%">
      <stop offset="0%" stop-color="#15803d"/>
      <stop offset="100%" stop-color="#052e16"/>
    </linearGradient>
    <linearGradient id="skull-grad" x1="0%" y1="0%" x2="0%" y2="100%">
      <stop offset="0%" stop-color="#ccff33"/>
      <stop offset="100%" stop-color="#662200"/>
    </linearGradient>
    <linearGradient id="glare" x1="0%" y1="0%" x2="100%" y2="100%">
      <stop offset="0%" stop-color="#ffffff" stop-opacity="0.6"/>
      <stop offset="40%" stop-color="#ffffff" stop-opacity="0.1"/>
    </linearGradient>
  </defs>
  <rect width="512" height="512" fill="#0b0b0b"/>
  <circle cx="256" cy="256" r="220" fill="url(#super-glow)"/>
  
  <g transform="translate(0, -10)">
    <path d="M 256,80 L 400,140 Q 430,220 430,300 L 370,410 Q 256,450 142,410 L 82,300 Q 82,220 112,140 Z" fill="#052e16"/>
    <path d="M 142,410 L 82,300 Q 82,220 112,140 L 135,165 L 112,290 L 165,385 L 256,415 L 347,385 L 400,290 L 377,165 L 400,140 Q 430,220 430,300 L 370,410 Q 256,450 142,410 Z" fill="url(#bevel-poison)" opacity="0.9"/>
    <path d="M 256,100 L 377,165 L 400,290 L 347,385 L 256,415 L 165,385 L 112,290 L 135,165 Z" fill="url(#gem-poison)"/>
    <path d="M 256,100 L 377,165 L 400,290 L 220,320 L 112,290 L 135,165 Z" fill="url(#glare)" opacity="0.4"/>
    <ellipse cx="160" cy="145" rx="20" ry="15" transform="rotate(-25, 160, 145)" fill="#ffffff" opacity="0.7"/>
    
    <g fill="#a3e635" stroke="#052e16" stroke-width="3">
      <circle cx="170" cy="210" r="12"/> <circle cx="162" cy="240" r="8"/>
      <circle cx="340" cy="210" r="10"/> <circle cx="350" cy="235" r="7"/>
      <circle cx="168" cy="300" r="14"/> <circle cx="190" cy="335" r="8"/>
      <circle cx="342" cy="315" r="9"/>
    </g>
    
    <g stroke="#021e0a" stroke-width="14" stroke-linejoin="round">
      <path d="M 256,160 C 200,160 180,210 180,260 C 180,295 200,310 215,310 L 215,340 C 215,360 230,370 256,370 C 282,370 297,360 297,340 L 297,310 C 312,310 332,295 332,260 C 332,210 312,160 256,160 Z" fill="url(#skull-grad)"/>
    </g>
    <g fill="#021e0a">
      <ellipse cx="225" cy="250" rx="18" ry="22"/>
      <ellipse cx="287" cy="250" rx="18" ry="22"/>
      <path d="M 256,275 L 246,300 L 266,300 Z"/>
    </g>
    <g stroke="#021e0a" stroke-width="4" stroke-linecap="round">
      <line x1="240" y1="340" x2="240" y2="360"/>
      <line x1="256" y1="340" x2="256" y2="362"/>
      <line x1="272" y1="340" x2="272" y2="360"/>
    </g>
    <ellipse cx="230" cy="190" rx="20" ry="12" transform="rotate(-15, 230, 190)" fill="#ffffff" opacity="0.5"/>
  </g>
</svg>
