<svg xmlns="http://www.w3.org/2000/svg" viewBox="0 0 512 512" width="100%" height="100%">
  <defs>
    <radialGradient id="glow-psychic" cx="50%" cy="50%" r="50%">
      <stop offset="0%" stop-color="#a855f7" stop-opacity="0.4"/>
      <stop offset="100%" stop-color="#a855f7" stop-opacity="0"/>
    </radialGradient>
    <linearGradient id="gem-psychic" x1="0%" y1="0%" x2="0%" y2="100%">
      <stop offset="0%" stop-color="#e9d5ff"/>
      <stop offset="40%" stop-color="#a855f7"/>
      <stop offset="100%" stop-color="#581c87"/>
    </linearGradient>
    <linearGradient id="bevel-psychic" x1="0%" y1="0%" x2="0%" y2="100%">
      <stop offset="0%" stop-color="#7e22ce"/>
      <stop offset="100%" stop-color="#2e1065"/>
    </linearGradient>
    <linearGradient id="eye-grad" x1="0%" y1="0%" x2="0%" y2="100%">
      <stop offset="0%" stop-color="#3b0764"/>
      <stop offset="100%" stop-color="#1e0036"/>
    </linearGradient>
    <linearGradient id="glare" x1="0%" y1="0%" x2="100%" y2="100%">
      <stop offset="0%" stop-color="#ffffff" stop-opacity="0.6"/>
      <stop offset="40%" stop-color="#ffffff" stop-opacity="0.1"/>
    </linearGradient>
  </defs>
  <rect width="512" height="512" fill="#0b0b0b"/>
  <ellipse cx="256" cy="460" rx="160" ry="25" fill="url(#glow-psychic)"/>
  <g transform="translate(0, -10)">
    <path d="M 256,80 L 400,140 Q 430,220 430,300 L 370,410 Q 256,450 142,410 L 82,300 Q 82,220 112,140 Z" fill="#2e1065"/>
    <path d="M 142,410 L 82,300 Q 82,220 112,140 L 135,165 L 112,290 L 165,385 L 256,415 L 347,385 L 400,290 L 377,165 L 400,140 Q 430,220 430,300 L 370,410 Q 256,450 142,410 Z" fill="url(#bevel-psychic)" opacity="0.9"/>
    <path d="M 256,100 L 377,165 L 400,290 L 347,385 L 256,415 L 165,385 L 112,290 L 135,165 Z" fill="url(#gem-psychic)"/>
    <path d="M 256,100 L 377,165 L 400,290 L 220,320 L 112,290 L 135,165 Z" fill="url(#glare)" opacity="0.4"/>
    <ellipse cx="160" cy="145" rx="20" ry="15" transform="rotate(-25, 160, 145)" fill="#ffffff" opacity="0.7"/>
    <path d="M 160,256 C 200,190 312,190 352,256 C 312,322 200,322 160,256 Z" fill="none" stroke="#3b0764" stroke-width="12"/>
    <path d="M 170,256 C 205,200 307,200 342,256 C 307,312 205,312 170,256 Z" fill="none" stroke="#d8b4fe" stroke-width="4"/>
    <circle cx="256" cy="256" r="45" fill="url(#eye-grad)" stroke="#3b0764" stroke-width="4"/>
    <circle cx="270" cy="242" r="8" fill="#ffffff"/>
  </g>
</svg>
