<svg xmlns="http://www.w3.org/2000/svg" viewBox="0 0 512 512" width="100%" height="100%">
  <defs>
    <radialGradient id="glow-sun" cx="50%" cy="50%" r="50%">
      <stop offset="0%" stop-color="#f59e0b" stop-opacity="0.5"/>
      <stop offset="100%" stop-color="#f59e0b" stop-opacity="0"/>
    </radialGradient>
    <linearGradient id="gem-sun" x1="0%" y1="0%" x2="0%" y2="100%">
      <stop offset="0%" stop-color="#fef3c7"/>
      <stop offset="40%" stop-color="#fbbf24"/>
      <stop offset="100%" stop-color="#d97706"/>
    </linearGradient>
    <linearGradient id="bevel-sun" x1="0%" y1="0%" x2="0%" y2="100%">
      <stop offset="0%" stop-color="#b45309"/>
      <stop offset="100%" stop-color="#451a03"/>
    </linearGradient>
    <linearGradient id="sun-core" x1="0%" y1="0%" x2="0%" y2="100%">
      <stop offset="0%" stop-color="#fffde6"/>
      <stop offset="100%" stop-color="#f59e0b"/>
    </linearGradient>
    <linearGradient id="glare" x1="0%" y1="0%" x2="100%" y2="100%">
      <stop offset="0%" stop-color="#ffffff" stop-opacity="0.6"/>
      <stop offset="40%" stop-color="#ffffff" stop-opacity="0.1"/>
    </linearGradient>
  </defs>
  <rect width="512" height="512" fill="#0b0b0b"/>
  <ellipse cx="256" cy="460" rx="160" ry="25" fill="url(#glow-sun)"/>
  <g transform="translate(0, -10)">
    <path d="M 256,80 L 400,140 Q 430,220 430,300 L 370,410 Q 256,450 142,410 L 82,300 Q 82,220 112,140 Z" fill="#451a03"/>
    <path d="M 142,410 L 82,300 Q 82,220 112,140 L 135,165 L 112,290 L 165,385 L 256,415 L 347,385 L 400,290 L 377,165 L 400,140 Q 430,220 430,300 L 370,410 Q 256,450 142,410 Z" fill="url(#bevel-sun)" opacity="0.9"/>
    <path d="M 256,100 L 377,165 L 400,290 L 347,385 L 256,415 L 165,385 L 112,290 L 135,165 Z" fill="url(#gem-sun)"/>
    <path d="M 256,100 L 377,165 L 400,290 L 220,320 L 112,290 L 135,165 Z" fill="url(#glare)" opacity="0.4"/>
    <ellipse cx="160" cy="145" rx="20" ry="15" transform="rotate(-25, 160, 145)" fill="#ffffff" opacity="0.7"/>
    <g fill="url(#gem-sun)" stroke="#512500" stroke-width="10" stroke-linejoin="round">
      <path d="M 256,165 L 275,215 L 256,225 L 237,215 Z"/>
      <path d="M 256,347 L 275,297 L 256,287 L 237,297 Z"/>
      <path d="M 347,256 L 297,275 L 287,256 L 297,237 Z"/>
      <path d="M 165,256 L 215,275 L 225,256 L 215,237 Z"/>
      <path d="M 320,192 L 285,225 L 275,215 L 298,183 Z"/>
      <path d="M 192,320 L 225,285 L 215,275 L 183,298 Z"/>
      <path d="M 320,320 L 285,287 L 275,297 L 298,329 Z"/>
      <path d="M 192,192 L 225,227 L 215,237 L 183,213 Z"/>
    </g>
    <circle cx="256" cy="256" r="45" fill="url(#sun-core)" stroke="#512500" stroke-width="10"/>
    <path d="M 230,230 Q 245,220 260,225" fill="none" stroke="#ffffff" stroke-width="4" stroke-linecap="round"/>
  </g>
</svg>
